<?xml version="1.0" encoding="utf-8"?>
<!-- Generator: Adobe Illustrator 22.1.0, SVG Export Plug-In . SVG Version: 6.00 Build 0)  -->
<svg version="1.1" id="レイヤー_1" xmlns="http://www.w3.org/2000/svg" xmlns:xlink="http://www.w3.org/1999/xlink" x="0px"
	 y="0px" viewBox="0 0 447.5 307.6" style="enable-background:new 0 0 447.5 307.6;" xml:space="preserve">
<style type="text/css">
	.st0{fill:#FFF100;stroke:#FFF100;stroke-width:4;stroke-linecap:round;stroke-linejoin:round;}
	.st1{fill:#FFF100;stroke:#FFF100;stroke-miterlimit:10;}
</style>
<title>nxロゴ</title>
<polygon class="st0" points="20.9,2 39.8,2 30.4,70.6 20.9,139.2 11.5,70.6 2,2 "/>
<polygon class="st0" points="209.9,141.8 180.2,141.8 195,121.3 209.9,100.9 224.8,121.3 239.6,141.8 "/>
<polygon class="st0" points="167.7,93.9 167.7,50.8 183.1,72.4 198.5,93.9 183.1,115.5 167.7,137.1 "/>
<polygon class="st0" points="210.1,46.2 239.8,46.2 224.9,66.6 210.1,87 195.2,66.6 180.3,46.2 "/>
<polygon class="st0" points="252.1,93.9 252.1,137.1 236.7,115.5 221.3,93.9 236.7,72.4 252.1,50.8 "/>
<polygon class="st0" points="284.6,3.5 299.6,3.5 292.1,72 284.6,140.6 277,72 269.5,3.5 "/>
<path class="st0" d="M336.5,72L325.1,3.4L323.2,15l1.5,12.8l6.5,54.3c0.4,3.8-1.9,7.1-5,7.1h-15.2l-8.5,51.4h45.5L336.5,72z"/>
<polygon class="st0" points="92.6,2.7 111.5,2.7 102.1,71.3 92.6,139.9 83.2,71.3 73.7,2.7 "/>
<polygon class="st0" points="129.6,143.5 110.6,143.5 120.1,74.9 129.6,6.3 139,74.9 148.5,143.5 "/>
<polygon class="st0" points="56.8,140.6 37.8,140.6 47.3,72 56.8,3.5 66.2,72 75.7,140.6 "/>
<path class="st0" d="M414.8,131.1h-30.2c-3.5,0-6.3-2.8-6.3-6.2c0-0.6,0.1-1.3,0.3-1.9l16.8-53.7l13.4-42.8c0.2-0.7,0.5-1.3,0.9-1.8
	l-6.5-21.2L382.3,72l-20.8,68.6h83.6l-2.9-9.5L414.8,131.1z"/>
<polygon class="st0" points="415,119 393.5,119 404.2,81 415,43 425.8,81 436.6,119 "/>
<polygon class="st0" points="257.6,221.1 269.1,221.1 263.4,238.5 257.6,256 251.9,238.5 246.2,221.1 "/>
<polygon class="st0" points="287.6,221.1 295.5,221.1 291.5,238.5 287.6,256 283.6,238.5 279.6,221.1 "/>
<polygon class="st0" points="306.2,183.4 311.7,183.4 308.9,221.1 306.2,258.8 303.4,221.1 300.7,183.4 "/>
<path class="st0" d="M283.6,238.5l-4-17.4l-4,17.4l-4,17.4h15.8L283.6,238.5z M283.9,252.9h-7.1c-1,0-1.7-1.1-1.5-2.4l2.3-12.2
	l1.3-6.8c0.4-2,2.5-2,2.9,0l1.3,6.8l2.3,12.2C285.6,251.8,284.9,252.9,283.9,252.9z"/>
<path class="st0" d="M371.7,209.5l-13.5-46.7l-7.8,26.9l1.9,8.3l4,16.9c0.2,1-0.4,1.9-1.3,2.2c-0.1,0-0.3,0-0.4,0h-12.1l-3.1,10.9
	l6,8.2l6.5,8.9c0.7,0.9,0.5,2.1-0.3,2.8c-0.4,0.3-0.8,0.5-1.3,0.4h-16.7l-2.3,8h53.9L371.7,209.5z"/>
<path class="st0" d="M441.3,241.6h-12c-0.9,0-1.7-0.8-1.7-1.7c0-0.1,0-0.3,0-0.4l4-17l1.9-8l-1.5-5l-13.5-46.7l-7.3,25.2l2.3,4.9
	l3.6,8.1c0.4,0.8,0,1.8-0.8,2.2c-0.2,0.1-0.5,0.1-0.7,0.1h-8.7l-1.8,6.1l-13.5,46.8h53.9L441.3,241.6z"/>
<path class="st1" d="M50.5,295.9c0.1,3.1-1.1,6.1-3.2,8.4c-1.9,2.1-4.6,3.3-7.4,3.4c-2.6,0-5-1-6.8-2.8c-5-4.9-5-12.8-0.2-17.8
	c0.1-0.1,0.1-0.1,0.2-0.2c1.8-1.8,4.3-2.8,6.8-2.8c2.8,0,5.5,1.2,7.4,3.4C49.4,289.7,50.6,292.8,50.5,295.9z M46.7,295.9
	c0.1-2.1-0.7-4.2-2.1-5.7c-2.1-2.6-5.9-3-8.6-0.9c-0.3,0.3-0.6,0.6-0.9,0.9c-2.8,3.3-2.8,8.1,0,11.4c2.1,2.6,6,3,8.6,0.9
	c0.3-0.3,0.6-0.6,0.9-0.9C46,300,46.8,298,46.7,295.9L46.7,295.9z"/>
<path class="st1" d="M64.1,299.4v3.9H68c0.7-0.1,1.4,0.1,1.9,0.5c0.8,0.7,0.8,1.9,0,2.7c0,0,0,0,0,0c-0.6,0.4-1.3,0.6-1.9,0.5h-8.2
	c-0.7,0.1-1.4-0.1-2-0.5c-0.8-0.7-0.8-1.9-0.1-2.7c0,0,0,0,0.1-0.1c0.6-0.4,1.3-0.6,1.9-0.5h0.6v-14.8h-0.6c-0.7,0.1-1.4-0.1-2-0.5
	c-0.8-0.7-0.8-2,0-2.7c0,0,0,0,0,0c0.6-0.4,1.3-0.6,2-0.5h8.7c2.2-0.1,4.4,0.6,6.1,2.1c2.3,2.1,2.9,5.5,1.5,8.2
	c-0.5,0.9-1.1,1.6-1.9,2.2c-0.8,0.7-1.7,1.2-2.7,1.6c-1.2,0.4-2.4,0.6-3.7,0.5L64.1,299.4z M64.1,295.6h3.5c1.4,0.1,2.8-0.3,3.9-1.1
	c0.9-0.6,1.4-1.6,1.4-2.7c0-0.9-0.4-1.8-1.2-2.3c-1-0.7-2.2-1.1-3.4-1h-4.4L64.1,295.6z"/>
<path class="st1" d="M88.9,297.8v5.6h9.7v-2.1c-0.1-0.7,0.1-1.4,0.5-2c0.3-0.4,0.8-0.6,1.3-0.5c0.5,0,1,0.2,1.4,0.6
	c0.4,0.6,0.6,1.3,0.5,2v5.9H84.6c-0.7,0.1-1.4-0.1-2-0.5c-0.4-0.4-0.6-0.9-0.6-1.4c0-0.5,0.2-1,0.6-1.4c0.6-0.4,1.3-0.6,1.9-0.5h0.6
	v-14.9h-0.6c-0.7,0.1-1.4-0.1-2-0.5c-0.8-0.7-0.8-2,0-2.7c0,0,0,0,0,0c0.6-0.4,1.3-0.6,2-0.5h17v5.8c0.1,0.7-0.1,1.4-0.5,1.9
	c-0.3,0.4-0.8,0.6-1.4,0.6c-0.5,0-1-0.2-1.4-0.6c-0.4-0.6-0.6-1.3-0.5-1.9v-2h-8.8v5.5h3.3c-0.1-0.6,0-1.3,0.3-1.9
	c0.3-0.6,1-0.9,1.6-0.9c0.5,0,1,0.2,1.4,0.6c0.4,0.6,0.6,1.3,0.5,2v4.4c0.1,0.6,0,1.1-0.3,1.7c-0.3,0.5-0.9,0.9-1.6,0.9
	c-0.7,0-1.3-0.3-1.6-0.9c-0.2-0.6-0.3-1.3-0.3-1.9L88.9,297.8z"/>
<path class="st1" d="M114.6,291.9v11.5h1.4c0.7-0.1,1.4,0.1,1.9,0.5c0.8,0.7,0.8,1.9,0,2.7c0,0,0,0,0,0c-0.6,0.4-1.3,0.6-1.9,0.5h-5
	c-0.7,0.1-1.4-0.1-1.9-0.5c-0.4-0.4-0.6-0.9-0.6-1.4c0-0.5,0.2-1,0.6-1.4c0.5-0.4,1.1-0.6,1.8-0.5v-14.8h-0.6
	c-0.7,0.1-1.4-0.1-2-0.5c-0.8-0.7-0.8-1.9-0.1-2.7c0,0,0,0,0.1-0.1c0.6-0.4,1.3-0.6,2-0.5h4.4l9.7,15.2v-11.4h-1.4
	c-0.7,0.1-1.4-0.1-1.9-0.5c-0.8-0.7-0.8-1.9-0.1-2.7c0,0,0,0,0.1-0.1c0.6-0.4,1.3-0.6,1.9-0.5h5c0.7-0.1,1.4,0.1,2,0.5
	c0.4,0.3,0.6,0.8,0.6,1.4c0,0.5-0.2,1-0.6,1.4c-0.5,0.4-1.1,0.6-1.8,0.5v18.6h-3.8L114.6,291.9z"/>
<path class="st1" d="M176.5,297.8h-8.1v5.5h0.6c0.7-0.1,1.4,0.1,2,0.5c0.8,0.7,0.8,1.9,0,2.7c0,0,0,0,0,0c-0.6,0.4-1.3,0.6-2,0.5
	h-4.6c-0.7,0.1-1.4-0.1-2-0.5c-0.4-0.4-0.6-0.9-0.6-1.4c0-0.7,0.3-1.3,0.9-1.6c0.6-0.2,1.2-0.3,1.9-0.3v-14.8
	c-0.6,0-1.1-0.2-1.5-0.6c-0.3-0.3-0.5-0.8-0.5-1.3c0-0.5,0.2-1,0.6-1.4c0.6-0.4,1.3-0.6,2-0.5h3.9c0.7-0.1,1.4,0.1,2,0.5
	c0.8,0.7,0.8,1.9,0,2.7c0,0,0,0,0,0c-0.6,0.4-1.3,0.6-2,0.5h-0.6v5.5h8.1v-5.5h-0.6c-0.7,0.1-1.4-0.1-1.9-0.5c-0.8-0.7-0.8-2,0-2.7
	c0,0,0,0,0,0c0.6-0.4,1.3-0.6,1.9-0.5h3.9c0.7-0.1,1.4,0.1,2,0.5c0.4,0.3,0.6,0.9,0.6,1.4c0,0.5-0.2,0.9-0.5,1.3
	c-0.4,0.4-0.9,0.6-1.5,0.6v14.8c0.6-0.1,1.3,0,1.9,0.3c0.6,0.3,0.9,1,0.9,1.6c0,0.5-0.2,1-0.6,1.4c-0.6,0.4-1.3,0.6-1.9,0.5h-4.6
	c-0.7,0.1-1.4-0.1-1.9-0.5c-0.8-0.7-0.8-1.9-0.1-2.7c0,0,0,0,0.1-0.1c0.6-0.4,1.3-0.6,1.9-0.5h0.5V297.8z"/>
<path class="st1" d="M209.5,295.9c0.1,3.1-1.1,6.1-3.2,8.4c-1.9,2.1-4.6,3.3-7.4,3.4c-2.6,0-5-1-6.8-2.8c-5-4.9-5-12.8-0.2-17.8
	c0.1-0.1,0.1-0.1,0.2-0.2c1.8-1.8,4.3-2.8,6.8-2.8c2.8,0,5.5,1.2,7.4,3.4C208.4,289.7,209.6,292.8,209.5,295.9z M205.7,295.9
	c0.1-2.1-0.7-4.2-2.1-5.7c-2.1-2.6-6-3-8.6-0.9c-0.3,0.3-0.6,0.6-0.9,0.9c-2.8,3.3-2.8,8.1,0,11.4c2.1,2.6,6,3,8.6,0.9
	c0.3-0.3,0.6-0.6,0.9-0.9C205,300,205.8,298,205.7,295.9z"/>
<path class="st1" d="M234,288.5v10.7c0,2.3-0.9,4.4-2.5,6c-1.6,1.6-3.8,2.5-6.1,2.5c-1.1,0-2.2-0.2-3.3-0.6c-1-0.4-2-1-2.8-1.8
	c-0.7-0.7-1.4-1.6-1.9-2.5c-0.5-1.1-0.7-2.3-0.7-3.5v-10.8c-0.6,0.1-1.3-0.1-1.8-0.5c-0.4-0.4-0.6-0.9-0.6-1.4c0-0.5,0.2-1,0.6-1.4
	c0.6-0.4,1.3-0.6,2-0.5h5c0.7-0.1,1.4,0.1,2,0.5c0.8,0.7,0.8,1.9,0.1,2.7c0,0,0,0-0.1,0.1c-0.6,0.4-1.3,0.6-2,0.5h-1.4v11
	c0,1.2,0.5,2.3,1.4,3c0.9,0.9,2.1,1.3,3.4,1.3c0.9,0,1.7-0.2,2.5-0.6c0.8-0.4,1.4-1.1,1.9-1.8c0.3-0.6,0.5-1.2,0.5-1.9v-11.1H229
	c-0.7,0.1-1.4-0.1-2-0.5c-0.8-0.7-0.8-2,0-2.7c0,0,0,0,0,0c0.6-0.4,1.3-0.6,2-0.5h5c0.7-0.1,1.4,0.1,2,0.5c0.4,0.3,0.6,0.8,0.6,1.4
	c0,0.5-0.2,1-0.6,1.4C235.4,288.4,234.7,288.6,234,288.5z"/>
<path class="st1" d="M246.3,306.1c-0.2,0.3-0.5,0.6-0.8,0.8c-0.2,0.1-0.5,0.2-0.8,0.2c-0.5,0-1-0.2-1.4-0.6
	c-0.4-0.6-0.6-1.3-0.5-1.9V302c-0.1-0.7,0.1-1.4,0.5-2c0.4-0.4,0.9-0.6,1.4-0.6c0.4,0,0.8,0.1,1.1,0.4c0.3,0.3,0.6,0.7,0.7,1.2
	c0.1,0.4,0.3,0.8,0.5,1.1c0.6,0.5,1.2,0.9,1.9,1.2c0.9,0.4,2,0.6,3,0.6c1.5,0.1,2.9-0.3,4.2-1.2c0.6-0.4,1-1.1,1-1.8
	c0-0.5-0.2-1-0.5-1.3c-0.4-0.5-1-0.8-1.6-1c-1.1-0.3-2.2-0.6-3.3-0.8c-1.6-0.2-3.2-0.7-4.7-1.4c-1-0.5-1.9-1.3-2.5-2.3
	c-0.6-1-0.9-2.1-0.9-3.2c0-1.8,0.8-3.6,2.3-4.8c1.6-1.4,3.8-2.1,5.9-2c0.9,0,1.8,0.1,2.7,0.3c0.8,0.2,1.6,0.5,2.3,1
	c0.4-0.4,0.9-0.7,1.5-0.7c0.5,0,1,0.2,1.4,0.6c0.4,0.6,0.6,1.2,0.5,1.9v2.9c0.1,0.7-0.1,1.4-0.5,2c-0.3,0.4-0.8,0.6-1.4,0.6
	c-0.4,0-0.9-0.1-1.2-0.4c-0.3-0.3-0.6-0.8-0.6-1.3c-0.1-0.5-0.3-0.9-0.5-1.4c-0.4-0.5-1-0.9-1.6-1.2c-0.8-0.3-1.6-0.5-2.5-0.5
	c-1.2-0.1-2.3,0.3-3.2,1c-0.7,0.4-1.1,1.2-1.2,2c0,0.5,0.2,1,0.5,1.4c0.4,0.5,0.9,0.8,1.4,1c1.2,0.4,2.3,0.6,3.5,0.8
	c1.5,0.3,3,0.7,4.5,1.3c1,0.5,1.9,1.2,2.6,2.1c0.7,1,1,2.2,1,3.5c0.1,1.7-0.7,3.4-2,4.5c-1.9,1.5-4.3,2.3-6.7,2.2
	c-1,0-2.1-0.1-3.1-0.4C248.1,307,247.2,306.6,246.3,306.1z"/>
<path class="st1" d="M274.5,297.8v5.6h9.7v-2.1c-0.1-0.7,0.1-1.4,0.5-2c0.4-0.4,0.9-0.6,1.4-0.6c0.5,0,1,0.2,1.4,0.6
	c0.4,0.6,0.6,1.3,0.5,2v5.9h-17.9c-0.7,0.1-1.4-0.1-2-0.5c-0.4-0.4-0.6-0.9-0.6-1.4c0-0.5,0.2-1,0.6-1.4c0.6-0.4,1.3-0.6,1.9-0.5
	h0.6v-14.8H270c-0.7,0.1-1.4-0.1-2-0.5c-0.8-0.7-0.8-2,0-2.7c0,0,0,0,0,0c0.6-0.4,1.3-0.6,2-0.5h17v5.8c0.1,0.7-0.1,1.4-0.5,1.9
	c-0.3,0.4-0.8,0.6-1.4,0.6c-0.5,0-1-0.2-1.4-0.6c-0.4-0.6-0.6-1.3-0.5-1.9v-2h-8.8v5.5h3.3c-0.1-0.6,0-1.3,0.3-1.9
	c0.3-0.6,1-0.9,1.6-0.9c0.5,0,1,0.2,1.4,0.6c0.4,0.6,0.6,1.3,0.5,2v4.4c0.1,0.6,0,1.1-0.3,1.7c-0.3,0.5-0.9,0.9-1.6,0.9
	c-0.7,0-1.3-0.3-1.6-0.9c-0.2-0.6-0.3-1.3-0.3-1.9L274.5,297.8z"/>
<path class="st1" d="M327.8,303.3h8.3c0.4-0.3,0.8-0.5,1.3-0.6c0.5,0,1,0.2,1.4,0.6c0.4,0.6,0.6,1.3,0.5,2v1.8H322v-4
	c6.8-5.6,10.9-9.2,12.4-10.9c0.6-0.6,1-1.5,1.1-2.4c0-1-0.5-1.9-1.2-2.5c-0.9-0.7-2.1-1.1-3.2-1.1c-1.2,0-2.4,0.4-3.4,1.2
	c-0.5,0.5-0.9,1.2-1.1,1.9c-0.1,0.4-0.4,0.8-0.7,1.1c-0.3,0.2-0.7,0.3-1.1,0.3c-0.5,0-1-0.2-1.3-0.6c-0.4-0.3-0.6-0.8-0.6-1.3
	c0.1-1,0.4-2,1-2.8c0.7-1.2,1.8-2.1,3-2.7c1.3-0.7,2.8-1,4.3-1c2.2-0.1,4.3,0.7,5.9,2.2c1.5,1.3,2.3,3.3,2.3,5.3c0,1-0.2,2-0.6,2.9
	c-0.9,1.4-1.9,2.6-3.1,3.7C334.1,297.9,331.6,300.1,327.8,303.3z"/>
<path class="st1" d="M366.1,293v4.2c0,2.5-0.8,5-2.1,7.1c-1.3,2.2-3.6,3.5-6.1,3.4c-1.4,0-2.7-0.3-3.9-1c-1.3-1-2.3-2.2-3-3.7
	c-0.9-1.8-1.4-3.7-1.4-5.7V293c0-2.5,0.8-5,2.1-7.1c1.3-2.2,3.6-3.5,6.1-3.4c1.4,0,2.7,0.3,3.9,1c1.3,1,2.3,2.2,3,3.7
	C365.6,289,366.1,291,366.1,293z M362.3,293c0-1.9-0.6-3.8-1.7-5.4c-0.7-0.8-1.7-1.3-2.8-1.3c-1.1,0-2.2,0.5-2.8,1.4
	c-1.1,1.5-1.7,3.4-1.6,5.3v4.2c0,1.9,0.6,3.8,1.7,5.4c0.7,0.9,1.7,1.3,2.8,1.3c1.1,0,2.1-0.5,2.8-1.4c1.1-1.5,1.7-3.4,1.6-5.3V293z"
	/>
<path class="st1" d="M386.3,282.6v20.7h3.8c0.7-0.1,1.4,0.1,2,0.5c0.8,0.7,0.8,1.9,0.1,2.7c0,0,0,0-0.1,0.1c-0.6,0.4-1.3,0.6-2,0.5
	h-11.4c-0.7,0.1-1.4-0.1-2-0.5c-0.8-0.7-0.8-1.9,0-2.7c0,0,0,0,0,0c0.6-0.4,1.3-0.6,2-0.5h3.8v-15.8l-3.4,0.9
	c-0.4,0.1-0.8,0.2-1.2,0.2c-0.5,0-0.9-0.2-1.2-0.6c-0.4-0.4-0.5-0.9-0.5-1.4c0-0.4,0.1-0.9,0.4-1.2c0.5-0.4,1-0.7,1.6-0.8
	L386.3,282.6z"/>
<path class="st1" d="M416.2,295c0.9,0.7,1.7,1.5,2.2,2.6c1,2.1,1,4.6-0.2,6.6c-0.7,1.1-1.7,2-2.9,2.5c-1.4,0.6-2.9,0.9-4.4,0.9
	c-1.5,0-3-0.3-4.4-0.9c-1.2-0.5-2.2-1.4-2.9-2.5c-1.2-2-1.2-4.5-0.2-6.6c0.5-1,1.3-1.9,2.2-2.6c-0.8-0.7-1.4-1.6-1.9-2.5
	c-0.4-0.9-0.6-1.8-0.6-2.8c0-1.9,0.8-3.7,2.2-5c3.3-2.8,8.1-2.8,11.4,0c1.4,1.3,2.2,3.1,2.2,5c0,1-0.2,1.9-0.6,2.8
	C417.7,293.5,417,294.3,416.2,295z M415.4,300.9c0-1-0.5-2-1.3-2.7c-1.8-1.6-4.6-1.6-6.4,0c-0.8,0.7-1.3,1.7-1.3,2.7
	c0,0.8,0.4,1.6,1.1,2.1c2.1,1.2,4.6,1.2,6.7,0C415,302.5,415.4,301.7,415.4,300.9z M414.9,289.8c0-0.9-0.4-1.8-1.1-2.4
	c-1.8-1.3-4.2-1.3-6,0c-1.3,1.1-1.5,3.2-0.3,4.5c0.1,0.1,0.2,0.2,0.3,0.3c1.8,1.3,4.2,1.3,6,0C414.5,291.6,414.9,290.7,414.9,289.8z
	"/>
<path class="st1" d="M7.6,165.5v73.4h208v-73.4H7.6z M40.8,219.8H12.1v-51.5h5.6v47h23.2V219.8z M72.6,219.8H67v-51.5h5.6V219.8z
	 M120.4,219.8H115l-16.3-51.5h6l13.3,43.4l13.4-43.4h5.9L120.4,219.8z M191.9,219.8h-28.4v-51.5H191v4.5h-22v17.6h17.5v4.3H169v20.6
	h22.9L191.9,219.8z"/>
</svg>
