<svg id="レイヤー_1" data-name="レイヤー 1" xmlns="http://www.w3.org/2000/svg" viewBox="0 0 447.49 308.15"><title>logo</title><polygon points="20.92 2 39.84 2 30.38 70.58 20.92 139.16 11.46 70.58 2 2 20.92 2" style="fill:#f5e928;stroke:#f5e928;stroke-linecap:round;stroke-linejoin:round;stroke-width:4px"/><polygon points="209.89 141.76 180.16 141.76 195.03 121.35 209.89 100.94 224.75 121.35 239.61 141.76 209.89 141.76" style="fill:#f5e928;stroke:#f5e928;stroke-linecap:round;stroke-linejoin:round;stroke-width:4px"/><polygon points="167.71 93.93 167.71 50.81 183.11 72.37 198.51 93.93 183.11 115.5 167.71 137.06 167.71 93.93" style="fill:#f5e928;stroke:#f5e928;stroke-linecap:round;stroke-linejoin:round;stroke-width:4px"/><polygon points="210.05 46.16 239.78 46.16 224.91 66.57 210.05 86.98 195.19 66.57 180.33 46.16 210.05 46.16" style="fill:#f5e928;stroke:#f5e928;stroke-linecap:round;stroke-linejoin:round;stroke-width:4px"/><polygon points="252.12 93.93 252.12 137.06 236.71 115.5 221.31 93.93 236.71 72.37 252.12 50.81 252.12 93.93" style="fill:#f5e928;stroke:#f5e928;stroke-linecap:round;stroke-linejoin:round;stroke-width:4px"/><polygon points="284.58 3.45 299.65 3.45 292.11 72.03 284.58 140.6 277.04 72.03 269.5 3.45 284.58 3.45" style="fill:#f5e928;stroke:#f5e928;stroke-linecap:round;stroke-linejoin:round;stroke-width:4px"/><path d="M400,108.27,388.64,39.69l-1.91,11.52L388.24,64l6.45,54.31c.44,3.77-1.94,7.14-5.05,7.14H374.41l-8.53,51.41h45.51Z" transform="translate(-63.52 -36.25)" style="fill:#f5e928;stroke:#f5e928;stroke-linecap:round;stroke-linejoin:round;stroke-width:4px"/><polygon points="92.62 2.72 111.54 2.72 102.08 71.3 92.62 139.88 83.16 71.3 73.7 2.72 92.62 2.72" style="fill:#f5e928;stroke:#f5e928;stroke-linecap:round;stroke-linejoin:round;stroke-width:4px"/><polygon points="129.56 143.5 110.64 143.5 120.1 74.92 129.56 6.34 139.02 74.92 148.48 143.5 129.56 143.5" style="fill:#f5e928;stroke:#f5e928;stroke-linecap:round;stroke-linejoin:round;stroke-width:4px"/><polygon points="56.77 140.6 37.85 140.6 47.31 72.03 56.77 3.45 66.23 72.03 75.69 140.6 56.77 140.6" style="fill:#f5e928;stroke:#f5e928;stroke-linecap:round;stroke-linejoin:round;stroke-width:4px"/><path d="M478.27,167.34H448.09a6.25,6.25,0,0,1-6-8.11l16.8-53.7,13.38-42.76a6.28,6.28,0,0,1,.92-1.85l-6.47-21.23-20.9,68.58L425,176.85h83.61l-2.9-9.51Z" transform="translate(-63.52 -36.25)" style="fill:#f5e928;stroke:#f5e928;stroke-linecap:round;stroke-linejoin:round;stroke-width:4px"/><polygon points="415.05 119.01 393.45 119.01 404.25 81.03 415.05 43.05 425.84 81.03 436.64 119.01 415.05 119.01" style="fill:#f5e928;stroke:#f5e928;stroke-linecap:round;stroke-linejoin:round;stroke-width:4px"/><polygon points="257.64 221.09 269.1 221.09 263.37 238.53 257.64 255.97 251.92 238.53 246.19 221.09 257.64 221.09" style="fill:#f5e928;stroke:#f5e928;stroke-linecap:round;stroke-linejoin:round;stroke-width:4px"/><polygon points="287.57 221.09 295.5 221.09 291.54 238.53 287.57 255.97 283.61 238.53 279.65 221.09 287.57 221.09" style="fill:#f5e928;stroke:#f5e928;stroke-linecap:round;stroke-linejoin:round;stroke-width:4px"/><polygon points="306.17 183.37 311.67 183.37 308.92 221.09 306.17 258.81 303.43 221.09 300.68 183.37 306.17 183.37" style="fill:#f5e928;stroke:#f5e928;stroke-linecap:round;stroke-linejoin:round;stroke-width:4px"/><path d="M347.13,274.78l-4-17.44-4,17.44-4,17.44h15.84Zm.3,14.34h-7.11c-1,0-1.68-1.15-1.46-2.35l2.29-12.25,1.27-6.78c.36-1.95,2.55-1.95,2.92,0l1.26,6.78,2.29,12.25C349.11,288,348.4,289.12,347.43,289.12Z" transform="translate(-63.52 -36.25)" style="fill:#f5e928;stroke:#f5e928;stroke-linecap:round;stroke-linejoin:round;stroke-width:4px"/><path d="M435.19,245.71,421.71,199l-7.77,26.94,1.93,8.26,4,16.91a1.8,1.8,0,0,1-1.75,2.21H406l-3.13,10.86,6,8.2,6.51,8.9a2,2,0,0,1-1.65,3.24H397l-2.3,8h53.94Z" transform="translate(-63.52 -36.25)" style="fill:#f5e928;stroke:#f5e928;stroke-linecap:round;stroke-linejoin:round;stroke-width:4px"/><path d="M504.79,277.85h-12a1.71,1.71,0,0,1-1.67-2.11l4-17,1.87-8-1.46-5L482,199l-7.27,25.18L477,229.1l3.6,8.15a1.68,1.68,0,0,1-1.54,2.37h-8.71l-1.75,6.09-13.49,46.75H509Z" transform="translate(-63.52 -36.25)" style="fill:#f5e928;stroke:#f5e928;stroke-linecap:round;stroke-linejoin:round;stroke-width:4px"/><path d="M114,332.14a11.65,11.65,0,0,1-3.21,8.4,10,10,0,0,1-7.42,3.36,9.87,9.87,0,0,1-6.84-2.79,12.57,12.57,0,0,1,0-17.95,9.87,9.87,0,0,1,6.84-2.79,10,10,0,0,1,7.42,3.35A11.71,11.71,0,0,1,114,332.14Zm-3.79,0a8.13,8.13,0,0,0-2.09-5.72,6.09,6.09,0,0,0-9.48,0,8.85,8.85,0,0,0,0,11.42,6.11,6.11,0,0,0,9.48,0A8.11,8.11,0,0,0,110.2,332.14Z" transform="translate(-63.52 -36.25)" style="fill:#f5e928;stroke:#f5e928;stroke-miterlimit:10"/><path d="M127.66,335.66v3.9h3.83a2.9,2.9,0,0,1,1.95.52,1.91,1.91,0,0,1,0,2.74,2.9,2.9,0,0,1-1.95.53h-8.21a2.9,2.9,0,0,1-2-.53,1.9,1.9,0,0,1,0-2.74,2.89,2.89,0,0,1,1.94-.52h.59V324.73h-.59a2.84,2.84,0,0,1-2-.53,1.92,1.92,0,0,1,0-2.75,2.9,2.9,0,0,1,2-.53l8.73,0a8.57,8.57,0,0,1,6.09,2.1,6.92,6.92,0,0,1,1.48,8.25,7.11,7.11,0,0,1-1.91,2.19,10.27,10.27,0,0,1-2.73,1.63,10.4,10.4,0,0,1-3.69.55Zm0-3.79h3.51a6.31,6.31,0,0,0,3.93-1.12,3.31,3.31,0,0,0,1.45-2.69,3,3,0,0,0-1.17-2.33,5,5,0,0,0-3.36-1h-4.36Z" transform="translate(-63.52 -36.25)" style="fill:#f5e928;stroke:#f5e928;stroke-miterlimit:10"/><path d="M152.46,334v5.57h9.67V337.5a2.9,2.9,0,0,1,.53-1.95A1.8,1.8,0,0,1,164,335a1.76,1.76,0,0,1,1.35.58,2.84,2.84,0,0,1,.53,1.95v5.85H148.08a2.9,2.9,0,0,1-2-.53,1.8,1.8,0,0,1-.58-1.38,1.76,1.76,0,0,1,.59-1.36,2.91,2.91,0,0,1,1.94-.52h.6V324.73h-.6a2.84,2.84,0,0,1-2-.53,1.92,1.92,0,0,1,0-2.75,2.9,2.9,0,0,1,2-.53l17,0v5.77a2.86,2.86,0,0,1-.52,1.93,1.73,1.73,0,0,1-1.37.58,1.78,1.78,0,0,1-1.37-.57,2.85,2.85,0,0,1-.53-1.94v-2h-8.84v5.47h3.33a4,4,0,0,1,.28-1.9,1.82,1.82,0,0,1,1.63-.91,1.74,1.74,0,0,1,1.35.59,2.81,2.81,0,0,1,.53,1.95v4.36a3.27,3.27,0,0,1-.29,1.66,1.85,1.85,0,0,1-1.59.87,1.81,1.81,0,0,1-1.63-.91,4.06,4.06,0,0,1-.28-1.92Z" transform="translate(-63.52 -36.25)" style="fill:#f5e928;stroke:#f5e928;stroke-miterlimit:10"/><path d="M178.12,328.1v11.46h1.37a2.9,2.9,0,0,1,1.95.52,1.91,1.91,0,0,1,0,2.74,2.9,2.9,0,0,1-1.95.53h-5a2.9,2.9,0,0,1-1.95-.53,1.76,1.76,0,0,1-.58-1.38,1.78,1.78,0,0,1,.57-1.35,2.59,2.59,0,0,1,1.78-.53V324.73h-.59a2.81,2.81,0,0,1-2-.53,1.9,1.9,0,0,1,0-2.75,2.86,2.86,0,0,1,2-.53l4.38,0,9.68,15.2V324.73h-1.36a2.81,2.81,0,0,1-1.95-.53,1.9,1.9,0,0,1,0-2.75,2.86,2.86,0,0,1,1.95-.53l5,0a3,3,0,0,1,2,.52,1.74,1.74,0,0,1,.58,1.37,1.81,1.81,0,0,1-.57,1.37,2.55,2.55,0,0,1-1.76.53v18.62h-3.75Z" transform="translate(-63.52 -36.25)" style="fill:#f5e928;stroke:#f5e928;stroke-miterlimit:10"/><path d="M240,334.07h-8.09v5.49h.59a2.9,2.9,0,0,1,2,.52,1.91,1.91,0,0,1,0,2.74,2.9,2.9,0,0,1-2,.53h-4.64a2.9,2.9,0,0,1-2-.53,1.76,1.76,0,0,1-.58-1.38,1.82,1.82,0,0,1,.9-1.61,3.85,3.85,0,0,1,1.89-.27V324.73a2.31,2.31,0,0,1-1.51-.61,1.75,1.75,0,0,1-.51-1.29,1.77,1.77,0,0,1,.59-1.38,2.86,2.86,0,0,1,2-.53l3.86,0a3,3,0,0,1,2,.52,1.91,1.91,0,0,1,0,2.74,2.84,2.84,0,0,1-2,.53h-.59v5.55H240v-5.55h-.59a2.84,2.84,0,0,1-1.95-.53,1.92,1.92,0,0,1,0-2.75,2.9,2.9,0,0,1,1.95-.53l3.87,0a3,3,0,0,1,2,.52,1.77,1.77,0,0,1,.58,1.37,1.75,1.75,0,0,1-.51,1.29,2.31,2.31,0,0,1-1.51.61v14.83a4.14,4.14,0,0,1,1.89.27,1.84,1.84,0,0,1,.9,1.63,1.75,1.75,0,0,1-.58,1.36,2.9,2.9,0,0,1-1.95.53h-4.64a2.9,2.9,0,0,1-1.95-.53,1.9,1.9,0,0,1,0-2.74,2.91,2.91,0,0,1,1.94-.52H240Z" transform="translate(-63.52 -36.25)" style="fill:#f5e928;stroke:#f5e928;stroke-miterlimit:10"/><path d="M273,332.14a11.64,11.64,0,0,1-3.2,8.4,10,10,0,0,1-7.42,3.36,9.87,9.87,0,0,1-6.84-2.79,12.57,12.57,0,0,1,0-17.95,9.87,9.87,0,0,1,6.84-2.79,10,10,0,0,1,7.42,3.35A11.7,11.7,0,0,1,273,332.14Zm-3.78,0a8.13,8.13,0,0,0-2.09-5.72,6.1,6.1,0,0,0-9.49,0,8.88,8.88,0,0,0,0,11.42,6.12,6.12,0,0,0,9.49,0A8.11,8.11,0,0,0,269.22,332.14Z" transform="translate(-63.52 -36.25)" style="fill:#f5e928;stroke:#f5e928;stroke-miterlimit:10"/><path d="M297.53,324.73v10.74a8,8,0,0,1-2.52,6,8.41,8.41,0,0,1-6.08,2.46,8.75,8.75,0,0,1-3.29-.62,8.42,8.42,0,0,1-2.78-1.82A10.27,10.27,0,0,1,281,339a7.5,7.5,0,0,1-.68-3.49V324.73a2.56,2.56,0,0,1-1.78-.53,1.81,1.81,0,0,1-.57-1.37,1.77,1.77,0,0,1,.57-1.37,3,3,0,0,1,2-.52l5,0a2.9,2.9,0,0,1,1.95.53,1.9,1.9,0,0,1,0,2.75,2.84,2.84,0,0,1-1.95.53h-1.37V335.8a4,4,0,0,0,1.42,3,4.84,4.84,0,0,0,3.41,1.3,5.12,5.12,0,0,0,2.49-.63,5,5,0,0,0,1.91-1.83,3.46,3.46,0,0,0,.46-1.85V324.73h-1.37a2.84,2.84,0,0,1-1.95-.53,1.92,1.92,0,0,1,0-2.75,2.9,2.9,0,0,1,1.95-.53l5,0a2.92,2.92,0,0,1,2,.52,1.75,1.75,0,0,1,.59,1.37,1.78,1.78,0,0,1-.58,1.37A2.55,2.55,0,0,1,297.53,324.73Z" transform="translate(-63.52 -36.25)" style="fill:#f5e928;stroke:#f5e928;stroke-miterlimit:10"/><path d="M309.84,342.38a3.25,3.25,0,0,1-.81.76,1.54,1.54,0,0,1-.75.17,1.8,1.8,0,0,1-1.39-.58,2.89,2.89,0,0,1-.53-1.94v-2.55a2.9,2.9,0,0,1,.53-1.95,1.8,1.8,0,0,1,1.39-.58,1.78,1.78,0,0,1,1.12.35,2.28,2.28,0,0,1,.7,1.18,3.17,3.17,0,0,0,.49,1.11,5.9,5.9,0,0,0,1.91,1.17,7.53,7.53,0,0,0,3,.59,6.87,6.87,0,0,0,4.16-1.18,2.12,2.12,0,0,0,1-1.78,2.09,2.09,0,0,0-.5-1.32,3.63,3.63,0,0,0-1.63-1,24,24,0,0,0-3.31-.76,17.83,17.83,0,0,1-4.69-1.39,6.26,6.26,0,0,1-2.52-2.29,6,6,0,0,1-.92-3.2,6.24,6.24,0,0,1,2.27-4.76,8.54,8.54,0,0,1,5.92-2,11.12,11.12,0,0,1,2.71.32,7.8,7.8,0,0,1,2.26,1,2.16,2.16,0,0,1,1.48-.72,1.78,1.78,0,0,1,1.36.58,2.88,2.88,0,0,1,.52,1.93v2.85a2.9,2.9,0,0,1-.52,1.95,1.75,1.75,0,0,1-1.36.58,1.86,1.86,0,0,1-1.22-.42,2.11,2.11,0,0,1-.61-1.26,3.53,3.53,0,0,0-.52-1.35,4,4,0,0,0-1.61-1.18,6,6,0,0,0-2.47-.48,5.11,5.11,0,0,0-3.25.95,2.65,2.65,0,0,0-1.19,2,2.23,2.23,0,0,0,.49,1.36,3.18,3.18,0,0,0,1.43,1,26.11,26.11,0,0,0,3.54.83,23.78,23.78,0,0,1,4.48,1.26,6.17,6.17,0,0,1,2.59,2.15,5.84,5.84,0,0,1,1,3.47,5.59,5.59,0,0,1-2,4.49,10,10,0,0,1-6.69,2.22,12.45,12.45,0,0,1-3.06-.38A12.24,12.24,0,0,1,309.84,342.38Z" transform="translate(-63.52 -36.25)" style="fill:#f5e928;stroke:#f5e928;stroke-miterlimit:10"/><path d="M338,334v5.57h9.67V337.5a2.9,2.9,0,0,1,.53-1.95,1.8,1.8,0,0,1,1.38-.58,1.76,1.76,0,0,1,1.35.58,2.84,2.84,0,0,1,.53,1.95v5.85H333.6a2.9,2.9,0,0,1-2-.53,1.8,1.8,0,0,1-.58-1.38,1.76,1.76,0,0,1,.59-1.36,2.91,2.91,0,0,1,1.94-.52h.6V324.73h-.6a2.84,2.84,0,0,1-2-.53,1.92,1.92,0,0,1,0-2.75,2.9,2.9,0,0,1,2-.53l17,0v5.77a2.86,2.86,0,0,1-.52,1.93,1.73,1.73,0,0,1-1.37.58,1.78,1.78,0,0,1-1.37-.57,2.85,2.85,0,0,1-.53-1.94v-2H338v5.47h3.33a4,4,0,0,1,.28-1.9,1.82,1.82,0,0,1,1.63-.91,1.74,1.74,0,0,1,1.35.59,2.81,2.81,0,0,1,.53,1.95v4.36a3.27,3.27,0,0,1-.29,1.66,1.85,1.85,0,0,1-1.59.87,1.81,1.81,0,0,1-1.63-.91,4.06,4.06,0,0,1-.28-1.92Z" transform="translate(-63.52 -36.25)" style="fill:#f5e928;stroke:#f5e928;stroke-miterlimit:10"/><path d="M391.34,339.56h8.3a2.13,2.13,0,0,1,1.3-.56,1.73,1.73,0,0,1,1.37.58,2.92,2.92,0,0,1,.51,1.95v1.82H385.56v-4q10.23-8.44,12.36-10.86a3.67,3.67,0,0,0,1.07-2.35,3.17,3.17,0,0,0-1.21-2.45,4.68,4.68,0,0,0-3.22-1.06,4.91,4.91,0,0,0-3.38,1.18,4.29,4.29,0,0,0-1.13,1.87,2.25,2.25,0,0,1-.71,1.11,1.88,1.88,0,0,1-1.12.33,1.84,1.84,0,0,1-1.34-.56,1.75,1.75,0,0,1-.57-1.29,5.7,5.7,0,0,1,1-2.77,7.21,7.21,0,0,1,3-2.66,9.3,9.3,0,0,1,4.28-1,8.2,8.2,0,0,1,5.88,2.17,7,7,0,0,1,2.29,5.26,6.64,6.64,0,0,1-.65,2.91,15.76,15.76,0,0,1-3.15,3.71Q397,334.73,391.34,339.56Z" transform="translate(-63.52 -36.25)" style="fill:#f5e928;stroke:#f5e928;stroke-miterlimit:10"/><path d="M429.66,329.28v4.16a13,13,0,0,1-2.14,7.08,6.82,6.82,0,0,1-6.11,3.38,7.05,7.05,0,0,1-3.87-1,9.52,9.52,0,0,1-3-3.71,12.16,12.16,0,0,1-1.42-5.74v-4.16a13.11,13.11,0,0,1,2.13-7.07,6.78,6.78,0,0,1,6.1-3.39,7,7,0,0,1,3.85,1,9.51,9.51,0,0,1,3,3.7A12.12,12.12,0,0,1,429.66,329.28Zm-3.81,0a8.77,8.77,0,0,0-1.72-5.4,3.26,3.26,0,0,0-2.75-1.27,3.4,3.4,0,0,0-2.81,1.4,8.33,8.33,0,0,0-1.65,5.27v4.16a8.68,8.68,0,0,0,1.74,5.4,3.24,3.24,0,0,0,2.75,1.27,3.39,3.39,0,0,0,2.79-1.4,8.35,8.35,0,0,0,1.65-5.27Z" transform="translate(-63.52 -36.25)" style="fill:#f5e928;stroke:#f5e928;stroke-miterlimit:10"/><path d="M449.82,318.82v20.74h3.82a2.87,2.87,0,0,1,1.95.52,1.89,1.89,0,0,1,0,2.74,2.86,2.86,0,0,1-1.95.53H442.2a2.9,2.9,0,0,1-1.95-.53,1.91,1.91,0,0,1,0-2.74,2.9,2.9,0,0,1,1.95-.52H446V323.75l-3.38.89a5.08,5.08,0,0,1-1.22.22,1.65,1.65,0,0,1-1.25-.57,2,2,0,0,1-.53-1.41,1.72,1.72,0,0,1,.39-1.19,3.55,3.55,0,0,1,1.63-.77Z" transform="translate(-63.52 -36.25)" style="fill:#f5e928;stroke:#f5e928;stroke-miterlimit:10"/><path d="M479.76,331.24A7.63,7.63,0,0,1,482,333.8a7.1,7.1,0,0,1-.2,6.65,6.4,6.4,0,0,1-2.93,2.53,10.53,10.53,0,0,1-4.44.92A10.28,10.28,0,0,1,470,343a6.3,6.3,0,0,1-2.89-2.54,7.12,7.12,0,0,1-.21-6.64,7.55,7.55,0,0,1,2.2-2.56,8.58,8.58,0,0,1-1.93-2.52,6.32,6.32,0,0,1-.64-2.81,6.68,6.68,0,0,1,2.21-5,8.8,8.8,0,0,1,11.39,0,6.66,6.66,0,0,1,2.22,5,6.38,6.38,0,0,1-.64,2.83A8.07,8.07,0,0,1,479.76,331.24Zm-.87,5.89a3.66,3.66,0,0,0-1.28-2.7,4.81,4.81,0,0,0-6.38,0,3.66,3.66,0,0,0-1.29,2.74,2.56,2.56,0,0,0,1.11,2.06,6.89,6.89,0,0,0,6.74,0A2.61,2.61,0,0,0,478.89,337.13ZM478.45,326a3.12,3.12,0,0,0-1.1-2.4,5,5,0,0,0-6,0,3.18,3.18,0,0,0,0,4.81,5,5,0,0,0,6,0A3.13,3.13,0,0,0,478.45,326Z" transform="translate(-63.52 -36.25)" style="fill:#f5e928;stroke:#f5e928;stroke-miterlimit:10"/><path d="M71.13,201.77v73.38H279.18V201.77Zm33.24,54.32H75.59V204.6h5.58v47h23.2Zm31.76,0h-5.59V204.6h5.59Zm47.79,0h-5.38l-16.3-51.49h6L181.53,248,194.9,204.6h5.91Zm71.52,0H227V204.6h27.51v4.53H232.54v17.55H250V231H232.54v20.58h22.9Z" transform="translate(-63.52 -36.25)" style="fill:#f5e928;stroke:#f5e928;stroke-miterlimit:10"/></svg>